<svg width="256" height="256" viewBox="0 0 256 256" fill="none" xmlns="http://www.w3.org/2000/svg">
<g clip-path="url(#clip0_201_523)">
<g style="mix-blend-mode:darken">
<path d="M102 4.95604C116.959 6.73799 136.879 42.1433 150.679 63.119C164.48 84.0946 172.047 90.7843 190.937 99.4185C209.569 108.083 239.668 118.805 250.101 136.649C260.277 154.522 250.931 179.63 233.568 194.184C216.204 208.739 190.937 212.596 164.989 222.929C139.298 233.233 113.039 249.868 87.3162 248.687C61.8505 247.477 36.8901 228.193 25.7905 203.508C14.577 178.968 16.9668 149.057 26.205 125.267C35.3294 101.62 51.3022 84.0949 64.1165 59.6271C77.0447 35.0155 87.0419 3.1741 102 4.95604Z" fill="url(#paint0_linear_201_523)" fill-opacity="0.5"/>
</g>
<g style="mix-blend-mode:multiply">
<path d="M213.448 70.4207C231.847 89.1598 240.799 119.523 236.864 149.709C232.929 179.894 216.06 209.664 191.051 225.715C166.041 241.767 132.748 244.005 105.521 236.274C78.2943 228.543 56.8964 210.89 37.4452 194.335C17.994 177.781 0.489428 162.325 1.58248 145.304C2.67553 128.283 22.3662 109.696 31.5008 90.843C40.6354 71.9895 39.1184 53.0116 47.6041 45.2838C55.852 37.6029 73.8647 41.219 90.9343 41.9318C107.908 42.7869 123.75 40.4053 145.571 42.6529C167.296 45.0428 195.096 51.9195 213.448 70.4207Z" fill="url(#paint1_linear_201_523)"/>
</g>
<mask id="path-3-inside-1_201_523" fill="white">
<rect x="75" y="75" width="106" height="35.3333" rx="3"/>
</mask>
<rect x="75" y="75" width="106" height="35.3333" rx="3" stroke="white" stroke-width="14" mask="url(#path-3-inside-1_201_523)"/>
<rect x="75" y="131.533" width="7.06667" height="11.7778" fill="white"/>
<rect x="75" y="112.689" width="7.06667" height="11.7778" fill="white"/>
<rect x="173.933" y="131.533" width="7.06667" height="11.7778" fill="white"/>
<rect x="173.933" y="112.689" width="7.06667" height="11.7778" fill="white"/>
<rect x="75" y="150.378" width="7.06667" height="11.7778" fill="white"/>
<rect x="173.933" y="150.378" width="7.06667" height="11.7778" fill="white"/>
<rect x="75" y="169.222" width="7.06667" height="4.71111" fill="white"/>
<rect x="173.933" y="169.222" width="7.06667" height="4.71111" fill="white"/>
<path d="M75 173.933H86.7778V181H78C76.3431 181 75 179.657 75 178V173.933Z" fill="white"/>
<rect x="93.8444" y="173.933" width="11.7778" height="7.06667" fill="white"/>
<rect x="112.689" y="173.933" width="11.7778" height="7.06667" fill="white"/>
<rect x="131.533" y="173.933" width="11.7778" height="7.06667" fill="white"/>
<rect x="150.378" y="173.933" width="11.7778" height="7.06667" fill="white"/>
<path d="M169.222 173.933H181V178C181 179.657 179.657 181 178 181H169.222V173.933Z" fill="white"/>
</g>
<defs>
<linearGradient id="paint0_linear_201_523" x1="32.422" y1="83.611" x2="210.892" y2="224.838" gradientUnits="userSpaceOnUse">
<stop stop-color="#FFC700"/>
<stop offset="1" stop-color="#FAFF00"/>
</linearGradient>
<linearGradient id="paint1_linear_201_523" x1="182.384" y1="47.8822" x2="68.0947" y2="218.298" gradientUnits="userSpaceOnUse">
<stop stop-color="#FF9900"/>
<stop offset="1" stop-color="#FF3D00"/>
</linearGradient>
<clipPath id="clip0_201_523">
<rect width="256" height="256" fill="white"/>
</clipPath>
</defs>
</svg>
